<svg width="22" height="20" viewBox="0 0 22 20" fill="none" xmlns="http://www.w3.org/2000/svg">
<path d="M19.835 2.55273C18.7694 1.49111 17.3266 0.89502 15.8225 0.89502C14.3183 0.89502 12.8755 1.49111 11.81 2.55273L11 3.36273L10.19 2.55273C9.12441 1.49111 7.68158 0.89502 6.17745 0.89502C4.67332 0.89502 3.23049 1.49111 2.16495 2.55273C1.10287 3.61954 0.506592 5.06362 0.506592 6.56898C0.506592 8.07434 1.10287 9.51842 2.16495 10.5852L10.4675 18.8877C10.5372 18.958 10.6201 19.0138 10.7115 19.0519C10.8029 19.09 10.9009 19.1096 11 19.1096C11.099 19.1096 11.197 19.09 11.2884 19.0519C11.3798 19.0138 11.4627 18.958 11.5325 18.8877L19.835 10.5852C20.897 9.51842 21.4933 8.07434 21.4933 6.56898C21.4933 5.06362 20.897 3.61954 19.835 2.55273Z" fill="#C5C5C5"/>
</svg>
