<svg width="12" height="10" viewBox="0 0 12 10" fill="none" xmlns="http://www.w3.org/2000/svg">
<path d="M10.7015 1.79408C10.4291 1.44042 10.0767 1.15635 9.67331 0.96515C9.26989 0.773947 8.82692 0.68105 8.38068 0.694074C7.94586 0.703555 7.51968 0.817411 7.13807 1.02605C6.75646 1.23468 6.43058 1.53199 6.1879 1.89291C6.1228 1.98904 6.05999 2.08857 6.00003 2.19064C5.94003 2.08857 5.87725 1.98904 5.81215 1.89291C5.56947 1.53198 5.2436 1.23467 4.86199 1.02603C4.48037 0.817383 4.0542 0.703522 3.61937 0.694037C3.17323 0.681695 2.73048 0.774899 2.32718 0.966057C1.92388 1.15722 1.57142 1.44092 1.29852 1.79408C0.537437 2.78605 0.569856 4.16337 1.38102 5.3031C2.85752 7.37751 5.77765 9.20198 5.90116 9.27854C5.93084 9.29696 5.96509 9.30672 6.00003 9.30672C6.03496 9.30672 6.06921 9.29696 6.09889 9.27854C6.2224 9.2019 9.14249 7.37744 10.619 5.30303C11.4302 4.16337 11.4626 2.78605 10.7015 1.79408Z" fill="#EA7173"/>
</svg>
