<svg width="20" height="20" viewBox="0 0 20 20" fill="none" xmlns="http://www.w3.org/2000/svg">
<path d="M17.5104 14.1796C16.1512 11.913 15.3333 10.9233 15.3333 8.4761C15.3319 7.19426 14.8693 5.95574 14.0299 4.98695C13.1905 4.01816 12.0305 3.38383 10.7619 3.19991V3.14276C10.7619 2.94069 10.6816 2.7469 10.5388 2.60402C10.3959 2.46113 10.2021 2.38086 10 2.38086C9.79794 2.38086 9.60414 2.46113 9.46126 2.60402C9.31837 2.7469 9.2381 2.94069 9.2381 3.14276V3.20311C7.96167 3.44481 6.80848 4.12152 5.97495 5.11798C5.14142 6.11444 4.67908 7.36904 4.66667 8.6681C4.66667 10.9233 3.70515 12.1531 2.48961 14.1796C2.42032 14.2952 2.38293 14.4272 2.38127 14.5619C2.3796 14.6967 2.41372 14.8295 2.48013 14.9468C2.54654 15.064 2.64288 15.1616 2.7593 15.2295C2.87573 15.2974 3.00809 15.3332 3.14286 15.3332H16.8572C16.9919 15.3332 17.1243 15.2974 17.2407 15.2295C17.3572 15.1616 17.4535 15.064 17.5199 14.9467C17.5864 14.8295 17.6205 14.6966 17.6188 14.5619C17.6171 14.4271 17.5797 14.2952 17.5104 14.1796Z" fill="#EA7173"/>
<path d="M11.5238 16.0952H8.4762C8.27413 16.0952 8.08034 16.1755 7.93745 16.3184C7.79457 16.4613 7.71429 16.6551 7.71429 16.8571C7.71429 17.0592 7.79457 17.253 7.93745 17.3959C8.08034 17.5388 8.27413 17.619 8.4762 17.619H11.5238C11.7259 17.619 11.9197 17.5388 12.0626 17.3959C12.2055 17.253 12.2857 17.0592 12.2857 16.8571C12.2857 16.6551 12.2055 16.4613 12.0626 16.3184C11.9197 16.1755 11.7259 16.0952 11.5238 16.0952Z" fill="#EA7173"/>
</svg>
