<svg width="24" height="24" viewBox="0 0 24 24" fill="none" xmlns="http://www.w3.org/2000/svg">
<path d="M11.7696 13.43C11.9264 13.4172 12.0739 13.3503 12.1869 13.2409C12.3 13.1315 12.3716 12.9863 12.3896 12.83C12.473 10.4973 12.4363 8.1619 12.2796 5.833C12.1596 5.573 12.2796 5.573 11.9196 5.353C11.1996 4.903 6.3416 3.394 5.7716 4.003C5.2716 5.293 5.4916 10.771 5.5616 11.001C5.8216 11.831 10.6896 13.61 11.7696 13.43ZM6.2116 4.555H6.5616C8.19575 4.87636 9.79322 5.36216 11.3296 6.005C11.3296 6.244 11.5796 6.125 11.3296 12.302C9.61637 11.9536 7.95622 11.3821 6.3916 10.602C6.3816 10.542 6.1516 7.294 6.2116 4.555Z" fill="#0C6FFF"/>
<path d="M16.4976 4.104C16.4976 4.184 16.9476 9.742 16.8976 10.102C16.8976 10.102 15.2576 11.172 14.9676 11.322C14.1386 11.772 13.1386 12.202 12.7796 12.322C12.5796 12.561 12.5496 13.021 13.0696 12.881C14.5605 12.409 15.9899 11.7611 17.3276 10.951C17.8209 11.0477 18.3076 11.171 18.7876 11.321C20.5566 11.781 21.3766 11.611 21.5866 11.771C21.8866 12.101 23.0466 11.421 20.3666 10.551C19.5613 10.3184 18.7244 10.2138 17.8866 10.241C17.9747 8.03637 17.8309 5.82858 17.4576 3.654C17.4418 3.56076 17.4079 3.47153 17.3576 3.39142C17.3074 3.3113 17.2419 3.24187 17.1648 3.18708C17.0877 3.13229 17.0006 3.09322 16.9084 3.07211C16.8163 3.05099 16.7208 3.04823 16.6276 3.064C15.2076 3.444 13.8576 4.048 12.6286 4.854C12.3886 5.134 12.4286 5.494 12.7686 5.524C13.9486 4.9 15.2006 4.424 16.4976 4.104ZM3.5416 12.391C4.12004 12.1722 4.66788 11.8798 5.1716 11.521C5.23816 11.4956 5.29352 11.4473 5.32775 11.3848C5.36198 11.3223 5.37285 11.2497 5.35841 11.1799C5.34397 11.1102 5.30518 11.0478 5.24896 11.004C5.19274 10.9602 5.12278 10.9379 5.0516 10.941C3.0516 10.941 1.7226 12.221 1.9626 12.651C2.2026 13.081 2.8216 12.641 3.5416 12.391ZM7.4616 3.524C8.1506 3.194 11.1796 2.204 11.2596 2.184C12.6796 2.267 14.0896 2.461 15.4786 2.764C15.5316 2.8197 15.6046 2.85204 15.6815 2.85392C15.7584 2.85579 15.8329 2.82705 15.8886 2.774C15.9443 2.72096 15.9766 2.64796 15.9785 2.57107C15.9804 2.49418 15.9516 2.4197 15.8986 2.364C14.3755 1.5943 12.7048 1.16117 10.9996 1.094C9.7866 1.503 8.6146 2.024 7.5006 2.654C7.1106 2.864 6.4406 3.204 6.6006 3.654C6.7606 4.104 7.3316 3.584 7.4616 3.524Z" fill="#020202"/>
<path d="M18.5176 21.398C18.5976 19.188 18.5476 16.975 18.3676 14.77C18.3676 14.5 18.3676 14.5 18.0076 14.3C17.2776 13.92 12.3696 13.03 11.8096 13.64C11.7496 13.78 11.6296 13.41 11.5696 15.64C11.4896 18.709 11.5696 19.769 11.9396 20.318C12.6696 20.938 16.7276 22.658 17.8576 22.388C18.1476 22.338 18.5476 22.378 18.5176 21.398ZM17.3976 21.288C15.9768 21.0033 14.5896 20.571 13.2586 19.998C13.0102 19.9183 12.7665 19.8249 12.5286 19.718C12.3068 17.8774 12.2132 16.0236 12.2486 14.17C12.3386 13.81 16.9276 14.8 17.4276 15.09C17.5676 16.06 17.4176 20.918 17.3976 21.288Z" fill="#0C6FFF"/>
<path d="M10.1596 20.418C9.7096 20.618 9.2296 20.868 8.7996 21.098C8.1396 21.448 8.0596 21.498 7.8006 21.608C7.2706 21.948 7.0006 22.488 7.8006 22.488C8.98873 22.1985 10.1137 21.6934 11.1196 20.998C11.7496 20.288 11.6096 19.708 11.1196 19.998L10.1596 20.418Z" fill="#020202"/>
<path d="M7.0616 21.508C7.0916 19.998 7.0016 16 7.0016 15.46C6.96428 15.2771 6.8728 15.1097 6.73904 14.9795C6.60528 14.8493 6.43543 14.7624 6.2516 14.73C5.4716 14.6 1.0016 12.94 0.371599 13.59L0.231599 14C-0.188401 14.43 0.0715988 20.269 0.171599 20.578C0.391599 21.288 3.7616 22.438 4.4716 22.658C5.11934 22.8499 5.79484 22.9311 6.4696 22.898C6.59745 22.8892 6.7188 22.8383 6.81469 22.7533C6.91057 22.6683 6.97559 22.5539 6.9996 22.428C6.9996 22.218 7.0596 21.508 7.0596 21.508M5.9196 21.878C4.49801 21.5823 3.11092 21.1399 1.7806 20.558C1.4106 20.398 0.890599 20.288 1.0006 20.168C1.01203 20.0449 1.01203 19.9211 1.0006 19.798C1.0006 19.798 0.460599 14 1.1706 14.11C2.80532 14.4397 4.40294 14.9322 5.9396 15.58C5.9396 15.82 6.1796 15.72 5.9196 21.878Z" fill="#0C6FFF"/>
<path d="M10.5896 14.12C10.6718 14.0868 10.7375 14.0224 10.7722 13.9408C10.8069 13.8592 10.8077 13.7672 10.7746 13.685C10.7414 13.6028 10.677 13.5371 10.5954 13.5024C10.5138 13.4677 10.4218 13.4668 10.3396 13.5C9.48759 13.6627 8.65126 13.886 7.83059 14.17C7.60169 14.2847 7.38691 14.4256 7.19059 14.59C6.86059 15 7.06059 15.09 7.65059 15.18C8.70222 15.071 9.71039 14.7072 10.5896 14.12ZM23.5556 12.65C23.5258 12.4621 23.4228 12.2936 23.2692 12.1813C23.1155 12.0691 22.9237 12.0222 22.7356 12.051C21.2473 12.4899 19.8322 13.1471 18.5366 14.001C18.1166 14.271 18.3666 14.811 18.8766 14.551C20.059 13.9312 21.3067 13.4449 22.5966 13.101C22.5966 13.661 22.6566 12.971 22.8566 16.839C22.9966 19.439 23.0566 18.979 22.7966 19.189C21.6685 20.0002 20.4463 20.6718 19.1566 21.189C18.6066 21.588 18.5266 22.048 19.1566 21.988C20.8866 21.298 23.7656 19.988 23.9656 19.368C24.0746 17.121 23.9366 14.868 23.5556 12.651" fill="#020202"/>
</svg>
