<svg width="14" height="14" viewBox="0 0 14 14" fill="none" xmlns="http://www.w3.org/2000/svg">
<path fill-rule="evenodd" clip-rule="evenodd" d="M13.2283 8.81883C12.7546 8.10016 10.2591 5.65716 9.63376 4.99683C8.65784 3.962 7.98526 2.8105 6.71126 2.52466C5.91092 2.33741 1.86026 2.83966 2.50309 3.50641C2.52211 3.5259 2.54483 3.54139 2.56993 3.55197C2.59502 3.56254 2.62198 3.56799 2.64921 3.56799C2.67645 3.56799 2.7034 3.56254 2.7285 3.55197C2.75359 3.54139 2.77632 3.5259 2.79534 3.50641C3.07592 3.23166 5.06917 2.96275 6.60626 3.02108C7.31099 3.26876 7.91331 3.74384 8.31834 4.3715C9.16592 5.43491 12.1818 8.56741 12.579 9.10525C12.6498 9.21064 12.7103 9.32166 12.7604 9.43833C11.962 10.655 10.9913 11.7495 9.87876 12.6875C9.49891 13.0018 9.05969 13.2365 8.58726 13.3776C7.70074 12.7087 6.85568 11.9866 6.05676 11.2152C5.10741 10.2653 4.2062 9.26848 3.35651 8.2285C2.94418 7.63128 2.72769 6.92066 2.73701 6.195C2.73701 6.14696 2.71792 6.10089 2.68396 6.06692C2.64999 6.03295 2.60392 6.01387 2.55588 6.01387C2.50784 6.01387 2.46177 6.03295 2.42781 6.06692C2.39384 6.10089 2.37476 6.14696 2.37476 6.195C2.45059 7.84291 2.80117 8.25183 3.86517 9.52583C5.04286 11.0482 6.40086 12.422 7.90942 13.6173C8.02685 13.7804 8.19435 13.9007 8.38644 13.9597C8.57852 14.0188 8.78464 14.0135 8.97342 13.9446C10.4988 13.4767 12.2226 11.2618 13.0993 10.1459C13.4266 9.71891 13.6378 9.45583 13.2283 8.81883Z" fill="black"/>
<path fill-rule="evenodd" clip-rule="evenodd" d="M5.08667 5.69217C5.30834 5.07267 5.37251 4.73375 4.87084 4.34175C4.73532 4.22792 4.57776 4.1433 4.40802 4.09318C4.23829 4.04306 4.06003 4.02852 3.88442 4.05048C3.70881 4.07244 3.53962 4.13042 3.38745 4.22079C3.23528 4.31116 3.10341 4.43197 3.00009 4.57566C2.49278 4.26909 2.04531 3.873 1.67942 3.40666C1.00101 2.64716 0.346506 1.379 1.10659 0.718665C1.42742 0.432248 1.99501 0.584498 2.55034 0.911165C3.83017 1.64208 3.78351 2.40741 4.13409 2.19683C4.62467 1.89933 3.10509 0.583915 2.46226 0.262498C0.948505 -0.502835 -0.0740778 0.525582 0.0956722 1.80541C0.305672 3.36 1.53884 4.41233 2.90676 5.08958C3.17509 6.80867 4.87026 6.3175 5.08667 5.69217ZM4.85334 5.1835C4.83244 5.36036 4.74963 5.52412 4.61958 5.64579C4.48953 5.76745 4.32062 5.83918 4.14276 5.84826C3.9649 5.85734 3.78957 5.80319 3.6478 5.69541C3.50603 5.58762 3.40698 5.43314 3.36817 5.25933C3.62542 5.35266 3.85934 5.35267 3.88267 5.201C3.90601 5.04933 3.57876 4.886 3.35067 4.76291C4.00517 3.9795 4.99392 4.70458 4.85334 5.1835ZM13.4674 3.86866C11.3931 2.97441 11.9537 3.22 9.05509 2.43075C9.00842 2.43075 8.71034 2.28491 8.54642 2.39575C8.51989 2.42084 8.5008 2.45278 8.49126 2.48803C8.48172 2.52328 8.4821 2.56048 8.49236 2.59553C8.50261 2.63058 8.52235 2.66212 8.54939 2.68667C8.57642 2.71122 8.60971 2.72783 8.64559 2.73466C9.04498 2.85133 9.43464 2.99366 9.81459 3.16166C10.9013 3.66684 12.02 4.10021 13.1635 4.459C13.6488 4.67483 12.8427 6.39333 12.8485 6.79641C12.8485 6.85056 12.87 6.90249 12.9083 6.94078C12.9466 6.97907 12.9985 7.00058 13.0527 7.00058C13.1068 7.00058 13.1588 6.97907 13.197 6.94078C13.2353 6.90249 13.2568 6.85056 13.2568 6.79641C13.2743 6.31166 14.5956 4.48875 13.4674 3.86866ZM5.74117 7.14175C5.69342 7.11469 5.65269 7.07678 5.62229 7.03108C5.59189 6.98538 5.57267 6.93317 5.56617 6.87866C5.57131 6.84767 5.56964 6.81593 5.56128 6.78565C5.55292 6.75537 5.53806 6.72727 5.51775 6.7033C5.49743 6.67934 5.47214 6.66009 5.44363 6.64688C5.41513 6.63368 5.38409 6.62684 5.35267 6.62684C5.32126 6.62684 5.29022 6.63368 5.26171 6.64688C5.2332 6.66009 5.20791 6.67934 5.1876 6.7033C5.16728 6.72727 5.15243 6.75537 5.14406 6.78565C5.1357 6.81593 5.13403 6.84767 5.13917 6.87866C5.12127 7.04537 5.15625 7.21348 5.23916 7.3592C5.32208 7.50493 5.44872 7.62089 5.60117 7.69066C5.68937 7.7307 5.78459 7.75295 5.8814 7.75614C5.97821 7.75934 6.07469 7.74341 6.16533 7.70928C6.25598 7.67515 6.339 7.62347 6.40966 7.55722C6.48031 7.49097 6.53721 7.41143 6.57709 7.32316C6.65292 7.189 6.69434 7.0385 6.69959 6.8845C6.70198 6.75103 6.68024 6.61823 6.63542 6.4925C6.48959 6.09 6.27901 5.8205 6.90959 6.32333C6.94268 6.35426 6.98559 6.37257 7.03082 6.37506C7.07605 6.37755 7.12071 6.36406 7.157 6.33695C7.19329 6.30984 7.21889 6.27084 7.22932 6.22676C7.23976 6.18268 7.23437 6.13634 7.21409 6.09583C6.846 5.63383 6.40734 5.22433 5.96926 5.70383C5.90467 5.78533 5.85782 5.87941 5.8317 5.98007C5.80558 6.08072 5.80077 6.18571 5.81759 6.28833C5.81759 6.48083 5.94009 6.65641 5.96926 6.87283C5.98611 6.92995 5.98611 6.99072 5.96926 7.04783C5.90509 7.1295 5.82926 7.19366 5.74117 7.14116M8.07334 6.73225C7.93684 6.73225 7.80423 6.75558 7.67551 6.80225C7.49841 6.86792 7.33576 6.96738 7.19659 7.09508C7.03014 7.25841 6.8742 7.43166 6.72876 7.61483L6.45459 7.93042L6.14426 8.30433C6.118 8.34199 6.10606 8.38779 6.1106 8.43348C6.11515 8.47916 6.13587 8.52172 6.16903 8.55347C6.20219 8.58522 6.2456 8.60408 6.29144 8.60663C6.33728 8.60919 6.38252 8.59528 6.41901 8.56742L6.77542 8.25825L6.85709 8.19408V8.25242C6.88927 8.32813 6.9471 8.39009 7.02042 8.42741C7.11434 8.48575 7.19659 8.50325 7.28992 8.55575C7.15576 8.68991 7.01576 8.83633 6.88684 8.95358C6.86462 8.97158 6.84617 8.99378 6.83254 9.01892C6.8189 9.04405 6.81035 9.07162 6.80737 9.10006C6.80439 9.1285 6.80704 9.15725 6.81517 9.18466C6.8233 9.21207 6.83675 9.23762 6.85476 9.25983C6.87276 9.28205 6.89496 9.3005 6.92009 9.31413C6.94522 9.32777 6.9728 9.33632 7.00124 9.3393C7.02967 9.34228 7.05842 9.33963 7.08583 9.3315C7.11325 9.32337 7.13879 9.30992 7.16101 9.29191C7.42467 9.10525 7.74609 8.88941 8.01501 8.64966C8.21412 8.47661 8.38931 8.28178 8.54059 8.06517C8.65609 7.85283 8.70334 7.61017 8.67476 7.36925C8.66766 7.26643 8.64029 7.16603 8.59424 7.07383C8.54819 6.98162 8.48436 6.89944 8.40642 6.832C8.30615 6.77 8.19119 6.73519 8.07334 6.73225ZM7.99167 7.74433C7.89549 7.92721 7.77759 8.09781 7.6405 8.25242C7.62171 8.15803 7.59236 8.06607 7.55301 7.97825C7.51846 7.89939 7.46171 7.8323 7.38967 7.78516C7.45967 7.72683 7.52967 7.6685 7.60551 7.616C7.68134 7.56291 8.29559 7.1715 7.99167 7.74433ZM8.95592 8.45075L8.13167 9.03525C7.96707 9.17338 7.82343 9.3347 7.70525 9.51416C7.65583 9.61004 7.63005 9.71634 7.63005 9.82421C7.63005 9.93207 7.65583 10.0384 7.70525 10.1342L7.83942 10.3676L8.03192 10.5957C8.04992 10.6176 8.07206 10.6357 8.09708 10.6491C8.1221 10.6624 8.1495 10.6707 8.17772 10.6735C8.20594 10.6762 8.23443 10.6734 8.26156 10.6652C8.28869 10.6569 8.31393 10.6434 8.33584 10.6254C8.35775 10.6074 8.3759 10.5853 8.38925 10.5603C8.4026 10.5352 8.41089 10.5078 8.41366 10.4796C8.41642 10.4514 8.4136 10.4229 8.40535 10.3958C8.3971 10.3686 8.38359 10.3434 8.36559 10.3215L8.28976 10.1337L8.23142 9.93533V9.877C8.23142 9.8595 8.31309 9.80116 8.35392 9.76033L8.61642 9.51416L9.20092 8.71383C9.22393 8.69805 9.24323 8.67746 9.25749 8.65349C9.27176 8.62951 9.28063 8.60272 9.28352 8.57497C9.2864 8.54722 9.28322 8.51918 9.27419 8.49278C9.26516 8.46639 9.25051 8.44227 9.23123 8.4221C9.21196 8.40193 9.18854 8.38619 9.16258 8.37596C9.13662 8.36574 9.10875 8.36129 9.0809 8.3629C9.05305 8.36452 9.02588 8.37217 9.00128 8.38532C8.97668 8.39847 8.95523 8.41682 8.93842 8.43908L8.95592 8.45075ZM9.97851 10.0987L10.066 10.227C10.1026 10.2655 10.1414 10.3007 10.1827 10.3326C10.6563 10.7065 10.7322 10.6657 10.8203 10.6015C10.9078 10.5373 11.0069 10.514 10.7211 9.90616C10.6954 9.85233 10.6639 9.80147 10.6272 9.7545C10.588 9.7078 10.5429 9.66643 10.493 9.63141C10.0193 9.31583 9.90851 9.38 9.23009 9.92308C9.15426 9.982 9.10175 10.0578 9.03175 10.122C8.95592 10.1978 8.87426 10.2678 8.80367 10.3501C8.73173 10.4477 8.66951 10.5509 8.61701 10.6598C8.56451 10.7712 8.54117 10.8932 8.54701 11.0162C8.56042 11.1609 8.61117 11.2997 8.69284 11.4199C8.76867 11.5249 9.15425 12.0044 9.37067 11.7582C9.5865 11.5132 9.3065 11.4549 9.18984 11.2035C9.17168 11.1426 9.17168 11.0777 9.18984 11.0168L9.30651 10.8879L9.36484 10.9346C9.83792 11.2327 9.91434 11.1796 9.99017 11.1096C10.066 11.0396 10.1302 10.9579 9.86767 10.4673C9.84533 10.422 9.81578 10.3807 9.78017 10.3448L10.0018 10.0753C9.99716 10.0857 9.98887 10.094 9.97851 10.0987Z" fill="black"/>
</svg>
