<svg width="24" height="24" viewBox="0 0 24 24" fill="none" xmlns="http://www.w3.org/2000/svg">
<path d="M12 23.999C18.6275 23.999 24 18.6265 24 11.999C24 5.373 18.6275 0 12 0C5.3725 0 0 5.3725 0 11.9995C0 18.6265 5.3725 23.999 12 23.999Z" fill="#FABC3D"/>
<path d="M18.709 18.3675L15.606 11.386C15.5719 11.3087 15.5161 11.2431 15.4454 11.197C15.3746 11.1509 15.2919 11.1264 15.2075 11.1265H14.182V9.9225C13.896 10.0095 13.604 10.0775 13.309 10.1305V11.1265H10.691V10.1305C10.3963 10.0786 10.1049 10.0092 9.8185 9.9225V11.1265H8.793C8.70847 11.1263 8.62572 11.1508 8.55486 11.1968C8.484 11.2429 8.4281 11.3087 8.394 11.386L5.291 18.3675C5.26139 18.4339 5.24887 18.5067 5.25458 18.5793C5.2603 18.6518 5.28407 18.7217 5.32373 18.7827C5.3634 18.8437 5.41769 18.8938 5.48166 18.9284C5.54563 18.9631 5.61726 18.9811 5.69 18.981H18.31C18.3827 18.9809 18.4541 18.9627 18.518 18.928C18.5818 18.8933 18.636 18.8432 18.6756 18.7823C18.7151 18.7213 18.7389 18.6515 18.7446 18.5791C18.7504 18.5066 18.7385 18.4339 18.709 18.3675Z" fill="#DF2C2C"/>
<path d="M12 11.1265H8.793C8.70847 11.1263 8.62572 11.1507 8.55486 11.1968C8.484 11.2429 8.4281 11.3087 8.394 11.386L5.291 18.3675C5.26139 18.4339 5.24887 18.5067 5.25458 18.5793C5.2603 18.6518 5.28407 18.7217 5.32373 18.7827C5.3634 18.8437 5.41769 18.8938 5.48166 18.9284C5.54563 18.963 5.61726 18.9811 5.69 18.981H12V11.1265Z" fill="#FA5655"/>
<path d="M5.45451 5.018C5.38474 5.01803 5.31599 5.03479 5.25404 5.06687C5.19208 5.09894 5.13871 5.1454 5.09841 5.20235C5.05811 5.25931 5.03205 5.32509 5.02241 5.39419C5.01277 5.46329 5.01983 5.53369 5.04301 5.5995C6.00151 8.3115 8.96001 10.254 12 10.254C15.04 10.254 17.9985 8.3115 18.957 5.5995C18.9803 5.53369 18.9875 5.46325 18.9779 5.39411C18.9683 5.32496 18.9422 5.25913 18.9019 5.20214C18.8616 5.14516 18.8082 5.09869 18.7461 5.06665C18.6841 5.0346 18.6153 5.01792 18.5455 5.018H5.45451Z" fill="#3E3E3F"/>
<path d="M5.45499 5.018C5.38523 5.01803 5.31648 5.03479 5.25452 5.06687C5.19257 5.09894 5.1392 5.1454 5.0989 5.20235C5.0586 5.25931 5.03253 5.32509 5.02289 5.39419C5.01325 5.46329 5.02032 5.53369 5.04349 5.5995C6.00149 8.3115 8.95999 10.254 12 10.254V5.018H5.45499Z" fill="#5B5C5F"/>
<path d="M15.055 15.054C15.0447 15.8574 14.7184 16.6244 14.1466 17.1889C13.5748 17.7534 12.8037 18.0699 12.0002 18.0699C11.1968 18.0699 10.4257 17.7534 9.8539 17.1889C9.28214 16.6244 8.95577 15.8574 8.9455 15.054C8.95998 14.2535 9.28816 13.4906 9.85941 12.9296C10.4307 12.3686 11.1993 12.0543 12 12.0543C12.8007 12.0543 13.5693 12.3686 14.1406 12.9296C14.7118 13.4906 15.04 14.2535 15.0545 15.054" fill="#F0F1F1"/>
<path d="M8.9455 15.054C8.94563 15.8641 9.26755 16.6411 9.84046 17.2139C10.4134 17.7867 11.1903 18.1085 12.0005 18.1085V11.9995C11.1903 11.9995 10.4134 12.3213 9.84046 12.8941C9.26755 13.4669 8.94563 14.2438 8.9455 15.054Z" fill="white"/>
<path d="M12.655 15.2C12.655 14.99 12.29 13.675 12.105 13.022C12.0986 12.9991 12.0849 12.9789 12.0659 12.9645C12.047 12.9501 12.0238 12.9423 12 12.9423C11.9762 12.9423 11.953 12.9501 11.9341 12.9645C11.9151 12.9789 11.9014 12.9991 11.895 13.022C11.71 13.6755 11.345 14.99 11.345 15.1995C11.345 15.4805 11.6385 15.7085 12 15.7085C12.3615 15.7085 12.655 15.481 12.655 15.2Z" fill="#3E3E3F"/>
</svg>
